<?xml version="1.0" encoding="UTF-8"?>
<svg width="200" height="200" viewBox="0 0 200 200" fill="none" xmlns="http://www.w3.org/2000/svg">
  <!-- Background -->
  <circle cx="100" cy="100" r="100" fill="#E9ECEF"/>
  
  <!-- Shoulders -->
  <path d="M40 200C40 160 70 150 100 150C130 150 160 160 160 200" fill="#343A40"/>
  
  <!-- Shirt collar -->
  <path d="M80 150L90 135H110L120 150" fill="#495057"/>
  
  <!-- Face -->
  <circle cx="100" cy="85" r="45" fill="#F5D5BC"/>
  
  <!-- Hair -->
  <path d="M60 70C60 50 80 35 100 35C120 35 140 50 140 70V75C140 75 130 85 100 85C70 85 60 75 60 75V70Z" fill="#000000"/>
  
  <!-- Glasses -->
  <rect x="75" y="70" width="20" height="10" rx="5" stroke="#000000" stroke-width="2"/>
  <rect x="105" y="70" width="20" height="10" rx="5" stroke="#000000" stroke-width="2"/>
  <path d="M95 75H105" stroke="#000000" stroke-width="2"/>
  <path d="M65 75L75 75" stroke="#000000" stroke-width="2"/>
  <path d="M125 75L135 75" stroke="#000000" stroke-width="2"/>
  
  <!-- Eyes -->
  <ellipse cx="85" cy="75" rx="3" ry="2" fill="#3A3A3A"/>
  <ellipse cx="115" cy="75" rx="3" ry="2" fill="#3A3A3A"/>
  
  <!-- Eyebrows -->
  <path d="M75 65C80 62 90 62 95 65" stroke="#000000" stroke-width="2" stroke-linecap="round"/>
  <path d="M105 65C110 62 120 62 125 65" stroke="#000000" stroke-width="2" stroke-linecap="round"/>
  
  <!-- Nose -->
  <path d="M100 80L95 90H105" stroke="#C4A99D" stroke-width="2" stroke-linecap="round"/>
  
  <!-- Mouth -->
  <path d="M90 100C95 105 105 105 110 100" stroke="#C4A99D" stroke-width="2" stroke-linecap="round"/>
</svg>
