<?xml version="1.0" encoding="UTF-8"?>
<svg width="200" height="200" viewBox="0 0 200 200" fill="none" xmlns="http://www.w3.org/2000/svg">
  <!-- Background -->
  <circle cx="100" cy="100" r="100" fill="#E9ECEF"/>
  
  <!-- Shoulders -->
  <path d="M40 200C40 160 70 150 100 150C130 150 160 160 160 200" fill="#6C757D"/>
  
  <!-- Shirt collar -->
  <path d="M75 150L85 130H115L125 150" fill="#495057"/>
  
  <!-- Face -->
  <circle cx="100" cy="85" r="45" fill="#FFD8B4"/>
  
  <!-- Hair -->
  <path d="M60 70C60 50 80 30 100 30C120 30 140 50 140 70V85C140 85 130 95 100 95C70 95 60 85 60 85V70Z" fill="#8B4513"/>
  <path d="M60 70C60 70 70 80 100 80C130 80 140 70 140 70" fill="#8B4513"/>
  
  <!-- Eyes -->
  <ellipse cx="85" cy="75" rx="5" ry="3" fill="#3A3A3A"/>
  <ellipse cx="115" cy="75" rx="5" ry="3" fill="#3A3A3A"/>
  
  <!-- Eyebrows -->
  <path d="M75 68C80 65 90 65 95 68" stroke="#5A3825" stroke-width="2" stroke-linecap="round"/>
  <path d="M105 68C110 65 120 65 125 68" stroke="#5A3825" stroke-width="2" stroke-linecap="round"/>
  
  <!-- Nose -->
  <path d="M100 80L95 90H105" stroke="#C4A99D" stroke-width="2" stroke-linecap="round"/>
  
  <!-- Mouth -->
  <path d="M90 100C95 105 105 105 110 100" stroke="#C4A99D" stroke-width="2" stroke-linecap="round"/>
  
  <!-- Beard stubble -->
  <path d="M85 110C90 115 110 115 115 110" stroke="#8B4513" stroke-width="1" stroke-linecap="round" stroke-dasharray="1 2"/>
  <path d="M80 105C85 110 115 110 120 105" stroke="#8B4513" stroke-width="1" stroke-linecap="round" stroke-dasharray="1 2"/>
</svg>
