<?xml version="1.0" encoding="UTF-8"?>
<svg width="200" height="200" viewBox="0 0 200 200" fill="none" xmlns="http://www.w3.org/2000/svg">
  <!-- Background -->
  <circle cx="100" cy="100" r="100" fill="#E9ECEF"/>
  
  <!-- Shoulders -->
  <path d="M40 200C40 160 70 150 100 150C130 150 160 160 160 200" fill="#ADB5BD"/>
  
  <!-- Necklace -->
  <path d="M90 150C90 140 110 140 110 150" stroke="#FFD700" stroke-width="2"/>
  <circle cx="100" cy="150" r="3" fill="#FFD700"/>
  
  <!-- Face -->
  <circle cx="100" cy="85" r="45" fill="#FFE0BD"/>
  
  <!-- Hair -->
  <path d="M60 85C60 85 60 40 100 40C140 40 140 85 140 85" fill="#8B4513"/>
  <path d="M60 85C60 85 70 95 100 95C130 95 140 85 140 85" fill="#8B4513"/>
  <path d="M65 50C65 50 80 35 100 35C120 35 135 50 135 50" fill="#8B4513"/>
  
  <!-- Eyes -->
  <ellipse cx="85" cy="75" rx="5" ry="3" fill="#3A3A3A"/>
  <ellipse cx="115" cy="75" rx="5" ry="3" fill="#3A3A3A"/>
  
  <!-- Eyebrows -->
  <path d="M75 65C80 62 90 62 95 65" stroke="#5A3825" stroke-width="2" stroke-linecap="round"/>
  <path d="M105 65C110 62 120 62 125 65" stroke="#5A3825" stroke-width="2" stroke-linecap="round"/>
  
  <!-- Nose -->
  <path d="M100 80L95 90H105" stroke="#C4A99D" stroke-width="2" stroke-linecap="round"/>
  
  <!-- Mouth -->
  <path d="M85 100C90 105 110 105 115 100" stroke="#DB7093" stroke-width="2" stroke-linecap="round"/>
  
  <!-- Earrings -->
  <circle cx="60" cy="85" r="3" fill="#FFD700"/>
  <circle cx="140" cy="85" r="3" fill="#FFD700"/>
</svg>
