<?xml version="1.0" encoding="UTF-8"?>
<svg width="120" height="40" viewBox="0 0 120 40" fill="none" xmlns="http://www.w3.org/2000/svg">
  <!-- Button Background -->
  <rect width="120" height="40" rx="6" fill="#E0E0E0"/>
  <rect x="0.5" y="0.5" width="119" height="39" rx="5.5" stroke="#BDBDBD"/>
  
  <!-- Apple Logo -->
  <path d="M24.252 20.271C24.227 17.669 26.377 16.312 26.477 16.246C25.227 14.39 23.277 14.14 22.577 14.115C20.902 13.94 19.277 15.14 18.427 15.14C17.552 15.14 16.227 14.14 14.802 14.165C12.977 14.19 11.277 15.265 10.327 16.94C8.352 20.34 9.802 25.34 11.702 28.015C12.652 29.315 13.777 30.79 15.252 30.74C16.677 30.69 17.227 29.815 18.952 29.815C20.652 29.815 21.177 30.74 22.652 30.715C24.177 30.69 25.152 29.39 26.077 28.09C27.177 26.59 27.627 25.115 27.652 25.04C27.602 25.015 24.277 23.79 24.252 20.271Z" fill="#A0A0A0"/>
  <path d="M21.477 12.19C22.252 11.24 22.777 9.94 22.627 8.615C21.527 8.665 20.152 9.39 19.352 10.315C18.652 11.14 18.002 12.49 18.177 13.765C19.402 13.865 20.677 13.115 21.477 12.19Z" fill="#A0A0A0"/>
  
  <!-- Text -->
  <path d="M42.65 27.25H40.4L39.25 23.85H35.05L33.95 27.25H31.75L35.9 14.95H38.45L42.65 27.25ZM38.85 22.2L37.85 19.15C37.75 18.85 37.55 18.05 37.25 16.75H37.2C37.05 17.45 36.85 18.25 36.6 19.15L35.6 22.2H38.85Z" fill="#808080"/>
  <path d="M54.05 22.5C54.05 24.1 53.6 25.35 52.7 26.25C51.9 27.05 50.9 27.45 49.7 27.45C48.4 27.45 47.45 27 46.85 26.1H46.8V31.15H44.7V20.85C44.7 19.85 44.65 18.8 44.6 17.7H46.45L46.55 19.15H46.6C47.35 18.05 48.45 17.5 49.9 17.5C51.05 17.5 52 17.95 52.75 18.85C53.6 19.75 54.05 20.95 54.05 22.5ZM51.9 22.55C51.9 21.55 51.65 20.75 51.15 20.1C50.6 19.45 49.9 19.1 49.05 19.1C48.45 19.1 47.9 19.3 47.45 19.7C47 20.1 46.7 20.6 46.55 21.25C46.5 21.5 46.45 21.7 46.45 21.85V23.45C46.45 24.15 46.7 24.75 47.15 25.25C47.6 25.75 48.2 26 48.9 26C49.8 26 50.5 25.65 51 24.95C51.6 24.25 51.9 23.45 51.9 22.55Z" fill="#808080"/>
  <path d="M65.25 22.5C65.25 24.1 64.8 25.35 63.9 26.25C63.1 27.05 62.1 27.45 60.9 27.45C59.6 27.45 58.65 27 58.05 26.1H58V31.15H55.9V20.85C55.9 19.85 55.85 18.8 55.8 17.7H57.65L57.75 19.15H57.8C58.55 18.05 59.65 17.5 61.1 17.5C62.25 17.5 63.2 17.95 63.95 18.85C64.8 19.75 65.25 20.95 65.25 22.5ZM63.1 22.55C63.1 21.55 62.85 20.75 62.35 20.1C61.8 19.45 61.1 19.1 60.25 19.1C59.65 19.1 59.1 19.3 58.65 19.7C58.2 20.1 57.9 20.6 57.75 21.25C57.7 21.5 57.65 21.7 57.65 21.85V23.45C57.65 24.15 57.9 24.75 58.35 25.25C58.8 25.75 59.4 26 60.1 26C61 26 61.7 25.65 62.2 24.95C62.8 24.25 63.1 23.45 63.1 22.55Z" fill="#808080"/>
  
  <path d="M76.85 23.6C76.85 24.75 76.4 25.7 75.5 26.4C74.5 27.15 73.1 27.55 71.3 27.55C69.65 27.55 68.3 27.25 67.25 26.65L67.75 25C68.85 25.6 70.05 25.9 71.35 25.9C72.35 25.9 73.1 25.7 73.65 25.3C74.2 24.9 74.45 24.35 74.45 23.7C74.45 23.1 74.25 22.6 73.85 22.2C73.45 21.8 72.75 21.45 71.8 21.1C69.15 20.2 67.85 18.85 67.85 17.05C67.85 15.95 68.3 15.05 69.2 14.35C70.1 13.65 71.3 13.3 72.8 13.3C74.2 13.3 75.35 13.55 76.25 14.05L75.7 15.65C74.85 15.15 73.85 14.9 72.75 14.9C71.8 14.9 71.1 15.1 70.6 15.5C70.15 15.85 69.95 16.3 69.95 16.85C69.95 17.45 70.2 17.9 70.65 18.25C71.05 18.6 71.8 18.95 72.85 19.35C74.15 19.85 75.1 20.4 75.7 21.05C76.45 21.7 76.85 22.55 76.85 23.6Z" fill="#808080"/>
  <path d="M83.25 19.2H80.95V23.95C80.95 25.15 81.4 25.75 82.3 25.75C82.7 25.75 83.05 25.7 83.3 25.65L83.4 27.1C83 27.25 82.45 27.3 81.75 27.3C80.9 27.3 80.25 27.05 79.8 26.55C79.35 26.05 79.1 25.2 79.1 24V19.2H77.7V17.7H79.1V15.9L80.95 15.3V17.7H83.25V19.2Z" fill="#808080"/>
  <path d="M94.5 22.5C94.5 23.95 94.05 25.15 93.15 26.05C92.2 27 90.95 27.45 89.4 27.45C87.9 27.45 86.7 27 85.8 26.1C84.9 25.2 84.45 24.05 84.45 22.65C84.45 21.2 84.9 20 85.85 19.05C86.8 18.1 88.05 17.65 89.6 17.65C91.1 17.65 92.3 18.1 93.25 19C94.1 19.85 94.5 21.05 94.5 22.5ZM92.3 22.6C92.3 21.7 92.1 20.95 91.65 20.3C91.15 19.55 90.45 19.15 89.55 19.15C88.6 19.15 87.9 19.55 87.4 20.3C86.95 20.95 86.75 21.7 86.75 22.65C86.75 23.55 86.95 24.3 87.4 24.95C87.9 25.7 88.6 26.1 89.55 26.1C90.45 26.1 91.15 25.7 91.65 24.9C92.1 24.25 92.3 23.5 92.3 22.6Z" fill="#808080"/>
  <path d="M101.05 19.45C100.85 19.4 100.6 19.4 100.35 19.4C99.5 19.4 98.85 19.7 98.45 20.3C98.1 20.85 97.9 21.55 97.9 22.4V27.25H95.8V20.7C95.8 19.55 95.8 18.5 95.75 17.7H97.6L97.7 19.55H97.75C97.95 18.95 98.3 18.45 98.8 18.1C99.3 17.8 99.8 17.65 100.35 17.65C100.55 17.65 100.75 17.65 100.9 17.7L101.05 19.45Z" fill="#808080"/>
  <path d="M111.65 22.15C111.65 22.5 111.65 22.75 111.6 23H104.25C104.3 24.05 104.65 24.85 105.3 25.4C105.9 25.9 106.7 26.15 107.65 26.15C108.7 26.15 109.65 25.95 110.5 25.6L110.85 27C109.85 27.45 108.7 27.65 107.35 27.65C105.75 27.65 104.5 27.2 103.6 26.3C102.7 25.4 102.25 24.2 102.25 22.7C102.25 21.25 102.65 20 103.5 19.05C104.4 18.05 105.6 17.55 107.1 17.55C108.55 17.55 109.65 18.05 110.4 19.05C111.25 19.9 111.65 20.95 111.65 22.15ZM109.65 21.45C109.65 20.8 109.5 20.25 109.15 19.8C108.7 19.25 108.05 18.95 107.2 18.95C106.45 18.95 105.8 19.2 105.3 19.75C104.85 20.2 104.6 20.8 104.5 21.45H109.65Z" fill="#808080"/>
  
  <path d="M38.5 8.3C38.5 9.3 38.2 10.05 37.6 10.55C37.05 11 36.3 11.25 35.35 11.25C34.85 11.25 34.4 11.25 34.05 11.2V5.7C34.5 5.65 35 5.6 35.55 5.6C36.45 5.6 37.15 5.8 37.65 6.25C38.2 6.75 38.5 7.45 38.5 8.3ZM37.7 8.35C37.7 7.7 37.5 7.2 37.15 6.85C36.8 6.5 36.3 6.35 35.65 6.35C35.4 6.35 35.15 6.35 35 6.4V10.5C35.1 10.5 35.35 10.5 35.65 10.5C36.35 10.5 36.85 10.3 37.25 9.95C37.55 9.55 37.7 9.05 37.7 8.35Z" fill="#808080"/>
  <path d="M43.1 9.05C43.1 9.75 42.9 10.3 42.45 10.75C42 11.15 41.4 11.35 40.65 11.35C39.95 11.35 39.35 11.15 38.95 10.8L39.2 10.05C39.65 10.4 40.15 10.55 40.7 10.55C41.15 10.55 41.5 10.45 41.75 10.2C42 9.95 42.15 9.65 42.15 9.25C42.15 8.9 42.05 8.6 41.8 8.4C41.6 8.2 41.25 8 40.8 7.8C39.8 7.4 39.3 6.85 39.3 6.1C39.3 5.45 39.5 4.95 39.95 4.55C40.35 4.15 40.9 3.95 41.55 3.95C42.15 3.95 42.65 4.1 43.05 4.35L42.8 5.1C42.45 4.85 42.05 4.75 41.6 4.75C41.2 4.75 40.9 4.85 40.65 5.05C40.45 5.25 40.35 5.5 40.35 5.8C40.35 6.15 40.45 6.4 40.7 6.6C40.9 6.8 41.3 7 41.75 7.2C42.3 7.45 42.7 7.75 42.95 8.05C43.05 8.35 43.1 8.7 43.1 9.05Z" fill="#808080"/>
  <path d="M48.25 11.25L48.15 10.6H48.1C47.8 10.9 47.5 11.1 47.2 11.2C46.9 11.3 46.55 11.35 46.2 11.35C45.65 11.35 45.2 11.2 44.9 10.9C44.6 10.6 44.45 10.2 44.45 9.7C44.45 8.65 45.2 8.1 46.7 8.05L48.1 8V7.65C48.1 7.2 48 6.85 47.8 6.65C47.6 6.45 47.3 6.35 46.9 6.35C46.45 6.35 46.05 6.45 45.65 6.7L45.45 6L46.5 5.55C46.9 5.4 47.3 5.35 47.7 5.35C48.35 5.35 48.85 5.5 49.15 5.8C49.45 6.1 49.6 6.6 49.6 7.25V11.25H48.25ZM48.1 8.7L47.15 8.75C46.5 8.8 46.05 8.9 45.8 9.05C45.55 9.2 45.4 9.45 45.4 9.8C45.4 10.05 45.5 10.25 45.65 10.4C45.8 10.55 46.05 10.6 46.35 10.6C46.75 10.6 47.1 10.45 47.4 10.2C47.7 9.95 47.85 9.6 47.85 9.2V8.7H48.1Z" fill="#808080"/>
  <path d="M54.85 11.25H53.35V7.15C53.35 6.25 52.95 5.8 52.15 5.8C51.65 5.8 51.25 6 51 6.35C50.75 6.7 50.6 7.15 50.6 7.65V11.25H49.1V3.25H50.6V6.05H50.65C51.1 5.55 51.7 5.3 52.45 5.3C53.1 5.3 53.6 5.5 53.95 5.9C54.55 6.45 54.85 7.25 54.85 8.3V11.25Z" fill="#808080"/>
  <path d="M61.75 8.35C61.75 9.25 61.5 9.95 61 10.5C60.5 11.05 59.85 11.35 59.05 11.35C58.3 11.35 57.7 11.1 57.25 10.55C56.8 10 56.55 9.35 56.55 8.5C56.55 7.6 56.8 6.9 57.3 6.35C57.8 5.8 58.45 5.5 59.25 5.5C60 5.5 60.6 5.75 61.1 6.3C61.55 6.8 61.75 7.5 61.75 8.35ZM60.25 8.4C60.25 7.85 60.15 7.4 59.95 7.05C59.7 6.65 59.35 6.45 58.9 6.45C58.45 6.45 58.1 6.65 57.85 7.05C57.6 7.45 57.5 7.9 57.5 8.45C57.5 9 57.6 9.45 57.8 9.8C58.05 10.2 58.4 10.4 58.85 10.4C59.3 10.4 59.65 10.2 59.9 9.8C60.15 9.4 60.25 8.95 60.25 8.4Z" fill="#808080"/>
  <path d="M67.65 11.25H66.15V7.2C66.15 6.3 65.75 5.85 64.95 5.85C64.45 5.85 64.05 6.05 63.8 6.4C63.55 6.75 63.4 7.2 63.4 7.7V11.25H61.9V5.6H63.15L63.3 6.4H63.35C63.55 6.1 63.8 5.85 64.15 5.7C64.5 5.5 64.9 5.4 65.3 5.4C66.85 5.4 67.65 6.25 67.65 7.95V11.25Z" fill="#808080"/>
  
  <path d="M74.05 11.25H72.8L72.65 10.45H72.6C72.15 11.05 71.5 11.35 70.65 11.35C70 11.35 69.5 11.15 69.1 10.75C68.7 10.35 68.5 9.85 68.5 9.25C68.5 8.4 68.8 7.8 69.45 7.4C70.1 7 71.05 6.8 72.3 6.8V6.65C72.3 6 71.9 5.65 71.1 5.65C70.5 5.65 69.95 5.8 69.45 6.1L69.1 5.25C69.7 4.85 70.45 4.65 71.3 4.65C72.95 4.65 73.8 5.5 73.8 7.2V9.75C73.8 10.5 73.9 11.05 74.05 11.25ZM72.35 8.95V7.6C70.7 7.6 69.9 8.05 69.9 8.95C69.9 9.25 70 9.5 70.15 9.65C70.3 9.8 70.5 9.85 70.8 9.85C71.1 9.85 71.4 9.75 71.65 9.55C71.9 9.35 72.05 9.1 72.15 8.8C72.3 8.85 72.35 8.9 72.35 8.95Z" fill="#808080"/>
  <path d="M80.25 11.25H79L78.85 10.3H78.8C78.35 11 77.7 11.35 76.85 11.35C76.2 11.35 75.65 11.1 75.25 10.65C74.85 10.2 74.65 9.6 74.65 8.85V5.6H76.15V8.65C76.15 9.55 76.55 10 77.35 10C77.95 10 78.35 9.75 78.6 9.3C78.7 9.15 78.75 8.95 78.75 8.7V5.6H80.25V9.15C80.25 9.9 80.3 10.5 80.35 11L80.25 11.25Z" fill="#808080"/>
  <path d="M86.7 5.6V6.5L85.65 6.65C85.8 6.85 85.9 7.15 85.9 7.5C85.9 8.1 85.7 8.6 85.3 8.95C84.9 9.3 84.35 9.5 83.65 9.5L83.35 9.45L83.15 9.4C83 9.55 82.95 9.65 82.95 9.8C82.95 10.05 83.2 10.15 83.7 10.15H84.7C85.35 10.15 85.85 10.3 86.2 10.6C86.55 10.9 86.7 11.3 86.7 11.85C86.7 12.5 86.4 13 85.85 13.4C85.3 13.8 84.5 14 83.5 14C82.7 14 82.1 13.85 81.65 13.55C81.2 13.25 81 12.85 81 12.35C81 12 81.1 11.7 81.35 11.45C81.6 11.2 81.9 11.05 82.3 10.95C82.1 10.85 81.95 10.75 81.85 10.6C81.75 10.45 81.7 10.3 81.7 10.1C81.7 9.9 81.75 9.75 81.9 9.6C82.05 9.45 82.25 9.3 82.5 9.15C82.2 9 81.95 8.8 81.8 8.55C81.65 8.3 81.55 8 81.55 7.65C81.55 7 81.75 6.5 82.15 6.15C82.55 5.8 83.1 5.6 83.8 5.6C84.05 5.6 84.3 5.65 84.55 5.7L86.7 5.6ZM82.4 12.3C82.4 12.55 82.5 12.75 82.75 12.9C83 13.05 83.3 13.1 83.7 13.1C84.3 13.1 84.75 13 85.1 12.8C85.45 12.6 85.6 12.35 85.6 12.05C85.6 11.8 85.5 11.65 85.3 11.55C85.1 11.45 84.8 11.4 84.35 11.4H83.45C83.1 11.4 82.8 11.5 82.6 11.65C82.45 11.85 82.4 12.05 82.4 12.3ZM82.85 7.6C82.85 7.95 82.95 8.2 83.15 8.4C83.35 8.6 83.6 8.7 83.95 8.7C84.65 8.7 85 8.3 85 7.55C85 7.15 84.9 6.85 84.7 6.65C84.5 6.45 84.25 6.35 83.9 6.35C83.6 6.35 83.35 6.45 83.15 6.65C82.95 6.9 82.85 7.2 82.85 7.6Z" fill="#808080"/>
  <path d="M91.65 11.25H90.15V7.2C90.15 6.3 89.75 5.85 88.95 5.85C88.45 5.85 88.05 6.05 87.8 6.4C87.55 6.75 87.4 7.2 87.4 7.7V11.25H85.9V5.6H87.15L87.3 6.4H87.35C87.55 6.1 87.8 5.85 88.15 5.7C88.5 5.5 88.9 5.4 89.3 5.4C90.85 5.4 91.65 6.25 91.65 7.95V11.25Z" fill="#808080"/>
</svg>
