<?xml version="1.0" encoding="UTF-8"?>
<svg width="135" height="40" viewBox="0 0 135 40" fill="none" xmlns="http://www.w3.org/2000/svg">
  <!-- Button Background -->
  <rect width="135" height="40" rx="6" fill="#E0E0E0"/>
  <rect x="0.5" y="0.5" width="134" height="39" rx="5.5" stroke="#BDBDBD"/>
  
  <!-- Play Store Logo -->
  <path d="M18.5 11.1L33.5 20L18.5 28.9L18.5 11.1Z" fill="#A0A0A0" stroke="#A0A0A0" stroke-width="0.2"/>
  <path d="M18.5 11.1L27 20L18.5 28.9L18.5 11.1Z" fill="#B0B0B0" stroke="#B0B0B0" stroke-width="0.2"/>
  <path d="M47 20L33.5 20L27 20L18.5 11.1L47 20Z" fill="#909090" stroke="#909090" stroke-width="0.2"/>
  <path d="M18.5 28.9L27 20L33.5 20L47 20L18.5 28.9Z" fill="#808080" stroke="#808080" stroke-width="0.2"/>
  
  <!-- Text -->
  <path d="M58.3 21.75C56.05 21.75 54.2 23.45 54.2 25.85C54.2 28.2 56.05 29.95 58.3 29.95C60.55 29.95 62.4 28.25 62.4 25.85C62.4 23.45 60.55 21.75 58.3 21.75ZM58.3 28.4C57 28.4 55.9 27.35 55.9 25.85C55.9 24.3 57 23.3 58.3 23.3C59.6 23.3 60.7 24.3 60.7 25.85C60.7 27.35 59.6 28.4 58.3 28.4ZM50.25 21.75C48 21.75 46.15 23.45 46.15 25.85C46.15 28.2 48 29.95 50.25 29.95C52.5 29.95 54.35 28.25 54.35 25.85C54.35 23.45 52.5 21.75 50.25 21.75ZM50.25 28.4C48.95 28.4 47.85 27.35 47.85 25.85C47.85 24.3 48.95 23.3 50.25 23.3C51.55 23.3 52.65 24.3 52.65 25.85C52.65 27.35 51.55 28.4 50.25 28.4ZM40.8 22.95V24.65H44.65C44.55 25.55 44.25 26.2 43.8 26.65C43.25 27.2 42.4 27.8 40.8 27.8C38.3 27.8 36.35 25.75 36.35 23.25C36.35 20.75 38.3 18.7 40.8 18.7C42.05 18.7 42.95 19.15 43.65 19.8L44.85 18.6C43.9 17.7 42.65 17.05 40.8 17.05C37.4 17.05 34.55 19.8 34.55 23.25C34.55 26.7 37.4 29.45 40.8 29.45C42.6 29.45 43.9 28.85 44.95 27.75C46.05 26.65 46.4 25.1 46.4 23.85C46.4 23.5 46.35 23.15 46.35 22.9H40.8V22.95ZM79.25 24.3C78.9 23.45 77.95 21.75 75.85 21.75C73.75 21.75 72.05 23.35 72.05 25.85C72.05 28.15 73.7 29.95 76.05 29.95C77.85 29.95 78.9 28.85 79.35 28.2L78 27.3C77.55 27.95 76.95 28.4 76.05 28.4C75.15 28.4 74.5 28 74.05 27.15L79.4 24.85L79.25 24.3ZM73.8 25.8C73.75 24.15 75.05 23.25 75.95 23.25C76.65 23.25 77.25 23.6 77.45 24.1L73.8 25.8ZM70.4 29.25H72.1V17.5H70.4V29.25ZM67.75 22.65H67.7C67.3 22.15 66.55 21.75 65.65 21.75C63.65 21.75 61.8 23.5 61.8 25.85C61.8 28.2 63.65 29.9 65.65 29.9C66.55 29.9 67.3 29.5 67.7 29L67.75 29V29.6C67.75 31.15 66.9 32 65.7 32C64.7 32 64.05 31.3 63.8 30.7L62.35 31.35C62.8 32.35 63.9 33.55 65.7 33.55C67.65 33.55 69.35 32.45 69.35 29.35V22H67.75V22.65ZM65.85 28.4C64.55 28.4 63.5 27.35 63.5 25.85C63.5 24.35 64.55 23.3 65.85 23.3C67.15 23.3 68.1 24.35 68.1 25.85C68.15 27.35 67.15 28.4 65.85 28.4ZM86.7 17.5H82.8V29.25H84.5V24.85H86.7C88.65 24.85 90.55 23.45 90.55 21.15C90.55 18.85 88.65 17.5 86.7 17.5ZM86.75 23.25H84.5V19.1H86.75C88.05 19.1 88.85 20.15 88.85 21.15C88.85 22.15 88.05 23.25 86.75 23.25ZM97.55 21.7C96.35 21.7 95.1 22.2 94.55 23.45L96.05 24.1C96.4 23.45 96.95 23.25 97.6 23.25C98.5 23.25 99.4 23.8 99.45 24.75V24.9C99.1 24.7 98.45 24.4 97.65 24.4C96 24.4 94.3 25.35 94.3 27.05C94.3 28.6 95.65 29.65 97.15 29.65C98.3 29.65 98.9 29.15 99.35 28.55H99.4V29.25H101.05V24.9C101 22.85 99.5 21.7 97.55 21.7ZM97.35 28.4C96.75 28.4 95.95 28.1 95.95 27.1C95.95 25.9 96.95 25.55 97.8 25.55C98.55 25.55 98.9 25.7 99.4 25.9C99.25 27.35 98.35 28.4 97.35 28.4ZM107.85 22L105.9 26.85H105.85L103.85 22H102V29.25H103.65V24.4H103.7L105.5 29.25H106.25L108.05 24.4H108.1V29.25H109.75V22H107.85ZM100.65 29.25H102.35V17.5H100.65V29.25ZM116.65 25.85C116.65 23.5 115.05 21.75 112.95 21.75C110.85 21.75 109.2 23.5 109.2 25.85C109.2 28.2 110.85 29.95 112.95 29.95C115.05 29.95 116.65 28.2 116.65 25.85ZM114.95 25.85C114.95 27.4 114 28.4 112.95 28.4C111.9 28.4 110.9 27.4 110.9 25.85C110.9 24.3 111.9 23.25 112.95 23.25C114 23.25 114.95 24.3 114.95 25.85ZM118.05 29.25H119.75V24.85C119.75 23.9 120.5 23.3 121.25 23.3C122 23.3 122.65 23.9 122.65 24.85V29.25H124.35V24.85C124.35 23.9 125.05 23.3 125.85 23.3C126.6 23.3 127.25 23.9 127.25 24.85V29.25H128.95V24.85C128.95 23 127.75 21.75 126.15 21.75C125 21.75 124.1 22.35 123.7 23.15H123.65C123.3 22.35 122.5 21.75 121.45 21.75C120.45 21.75 119.7 22.25 119.35 22.95H119.3V22H118.05V29.25Z" fill="#808080"/>
  
  <path d="M47.7 10.5C47.7 11.05 47.55 11.5 47.25 11.8C46.9 12.15 46.45 12.35 45.9 12.35C45.35 12.35 44.9 12.15 44.55 11.8C44.2 11.45 44 11 44 10.45C44 9.9 44.2 9.45 44.55 9.1C44.9 8.75 45.35 8.55 45.9 8.55C46.15 8.55 46.4 8.6 46.65 8.7C46.9 8.8 47.1 8.95 47.25 9.15L46.85 9.55C46.6 9.25 46.3 9.1 45.9 9.1C45.55 9.1 45.25 9.25 45 9.5C44.75 9.75 44.65 10.05 44.65 10.45C44.65 10.85 44.75 11.15 45 11.4C45.25 11.65 45.55 11.8 45.9 11.8C46.25 11.8 46.55 11.65 46.8 11.4C46.95 11.25 47.05 11 47.1 10.7H45.9V10.15H47.7V10.5Z" fill="#808080"/>
  <path d="M51.05 8.65H48.7V10.05H50.85V10.6H48.7V12H51.05V12.55H48.1V8.1H51.05V8.65Z" fill="#808080"/>
  <path d="M53.85 12.55H53.25V8.65H52.05V8.1H55.05V8.65H53.85V12.55Z" fill="#808080"/>
  
  <path d="M58.4 12.55V8.1H59V12.55H58.4Z" fill="#808080"/>
  <path d="M61.75 12.55H61.15V8.65H59.95V8.1H62.95V8.65H61.75V12.55Z" fill="#808080"/>
  <path d="M69.05 11.8C68.7 12.15 68.25 12.35 67.7 12.35C67.15 12.35 66.7 12.15 66.35 11.8C66 11.45 65.8 11 65.8 10.45C65.8 9.9 66 9.45 66.35 9.1C66.7 8.75 67.15 8.55 67.7 8.55C68.25 8.55 68.7 8.75 69.05 9.1C69.4 9.45 69.6 9.9 69.6 10.45C69.6 11 69.4 11.45 69.05 11.8ZM66.8 11.4C67.05 11.65 67.35 11.8 67.7 11.8C68.05 11.8 68.35 11.65 68.6 11.4C68.85 11.15 69 10.85 69 10.45C69 10.05 68.85 9.75 68.6 9.5C68.35 9.25 68.05 9.1 67.7 9.1C67.35 9.1 67.05 9.25 66.8 9.5C66.55 9.75 66.4 10.05 66.4 10.45C66.4 10.85 66.55 11.15 66.8 11.4Z" fill="#808080"/>
  <path d="M70.6 12.55V8.1H71.35L73.4 11.45H73.45L73.4 10.45V8.1H74V12.55H73.35L71.2 9.05H71.15L71.2 10.05V12.55H70.6Z" fill="#808080"/>
  
  <path d="M78.65 10.95H77.5V12.55H76.9V8.1H78.65C79.05 8.1 79.4 8.25 79.65 8.5C79.9 8.75 80.05 9.05 80.05 9.45C80.05 9.85 79.9 10.15 79.65 10.4C79.4 10.65 79.05 10.75 78.65 10.75V10.95ZM78.65 8.65H77.5V10.2H78.65C78.85 10.2 79.05 10.15 79.2 10C79.35 9.85 79.4 9.7 79.4 9.45C79.4 9.2 79.35 9.05 79.2 8.9C79.05 8.75 78.85 8.65 78.65 8.65Z" fill="#808080"/>
  <path d="M83.45 10.6H81.3V12H83.7V12.55H80.7V8.1H83.65V8.65H81.3V10.05H83.45V10.6Z" fill="#808080"/>
  <path d="M86.7 12.55C86.25 12.55 85.85 12.4 85.55 12.1C85.25 11.8 85.1 11.4 85.1 10.9V8.1H85.7V10.85C85.7 11.15 85.8 11.4 85.95 11.55C86.1 11.7 86.35 11.8 86.65 11.8C87.25 11.8 87.55 11.5 87.55 10.85V8.1H88.15V10.9C88.15 11.4 88 11.8 87.7 12.1C87.4 12.4 87.1 12.55 86.7 12.55Z" fill="#808080"/>
  <path d="M91.9 12.55H91.3V8.1H92.05L94.1 11.45H94.15L94.1 10.45V8.1H94.7V12.55H94.05L91.9 9.05H91.85L91.9 10.05V12.55Z" fill="#808080"/>
  <path d="M98.55 12.55H97.95V8.1H98.55V12.55Z" fill="#808080"/>
  <path d="M101.9 12.55H101.3V8.65H100.1V8.1H103.1V8.65H101.9V12.55Z" fill="#808080"/>
  <path d="M106.7 12.55V8.1H107.3V12.55H106.7Z" fill="#808080"/>
  <path d="M110.05 12.55H109.45V8.65H108.25V8.1H111.25V8.65H110.05V12.55Z" fill="#808080"/>
  <path d="M115.85 11.15C115.85 11.55 115.7 11.9 115.4 12.15C115.1 12.4 114.7 12.55 114.25 12.55H112.5V8.1H114.25C114.65 8.1 114.95 8.2 115.2 8.45C115.45 8.7 115.55 8.95 115.55 9.3C115.55 9.55 115.5 9.75 115.35 9.9C115.2 10.05 115.05 10.15 114.85 10.2C115.1 10.25 115.3 10.35 115.5 10.55C115.7 10.75 115.85 10.95 115.85 11.15ZM113.1 8.65V10H114.15C114.35 10 114.5 9.95 114.65 9.85C114.8 9.75 114.85 9.6 114.85 9.4C114.85 9.2 114.8 9.05 114.65 8.95C114.5 8.85 114.35 8.75 114.15 8.75H113.1V8.65ZM115.15 11.15C115.15 10.95 115.1 10.8 114.95 10.65C114.8 10.5 114.6 10.45 114.35 10.45H113.1V11.9H114.35C114.6 11.9 114.8 11.85 114.95 11.7C115.1 11.55 115.15 11.35 115.15 11.15Z" fill="#808080"/>
  <path d="M118.9 12.55H118.3V10.6H116.4V12.55H115.8V8.1H116.4V10.05H118.3V8.1H118.9V12.55Z" fill="#808080"/>
  <path d="M122.3 12.55H121.7V10.6H119.8V12.55H119.2V8.1H119.8V10.05H121.7V8.1H122.3V12.55Z" fill="#808080"/>
</svg>
